<svg width="24" height="24" viewBox="0 0 24 24" fill="none" xmlns="http://www.w3.org/2000/svg">
<path d="M23.9304 3.80477C23.9304 3.80477 23.9106 0.90495 23.9121 0.840672C23.9161 0.700079 23.8477 0.442004 23.5335 0.425871C23.4446 0.42137 13.52 0.00135968 13.52 0.00135968C13.451 -0.00566999 13.3833 0.0151662 13.3229 0.0498088C13.3229 0.0498088 11.0416 1.36117 10.9656 1.42535C10.9131 1.4697 10.8461 1.58172 10.8527 1.72034C10.8593 1.85891 10.8743 4.03816 10.8701 4.66046C10.8658 5.28277 10.2897 10.1043 9.54803 11.8132C9.46487 11.7396 9.3625 11.6969 9.25126 11.7137L7.63127 11.9754C7.39066 11.7388 6.92393 11.1997 6.6536 10.9379C6.35121 10.645 6.04456 10.9231 5.99637 11.0615C5.02447 13.856 0.153378 19.5821 0.103034 19.6384C-0.0574653 19.8174 -0.0476685 20.172 0.255752 20.3139L9.6849 23.9975C9.82281 24.0091 10.0135 23.9814 10.0868 23.9042C10.2456 23.7374 13.1306 20.6889 14.9334 17.6361L17.7879 17.7569C17.7928 17.7572 17.7983 17.7572 17.8032 17.7572C17.9366 17.7572 18.061 17.6832 18.1318 17.5604C18.1452 17.5377 18.2234 17.4004 18.3402 17.1897C18.3402 17.1897 21.2748 17.3174 21.3565 17.3168C21.4383 17.3162 21.4731 17.2986 21.5274 17.2687C21.5284 17.2684 23.7946 15.9695 23.7946 15.9695C23.9216 15.8963 24.0006 15.7536 24 15.5978L23.9304 3.80477ZM11.6018 5.11562L20.8375 5.50635C20.8107 5.71431 20.7746 5.98503 20.7316 6.30166C20.2736 6.44281 19.4323 6.72618 19.0564 6.85382L17.6366 5.86395C17.5729 5.8199 17.4496 5.75426 17.2948 5.82198L15.45 6.54133L14.1266 5.76883C14.0204 5.70728 13.8944 5.70156 13.7855 5.75466L12.409 6.4149C11.9682 6.2297 11.6824 6.11358 11.4941 6.04091C11.5409 5.66212 11.5769 5.34391 11.6018 5.11562ZM11.6294 2.15219L20.8766 2.54367L20.8885 4.67265L11.6417 4.28122L11.6294 2.15219ZM9.71781 23.1219L1.06191 19.7406C2.17532 18.4009 5.32531 14.5036 6.48012 11.9513C6.83468 12.3285 7.22543 12.7068 7.24938 12.7292C7.33511 12.8119 7.44968 12.85 7.56457 12.8312L9.15606 12.5737L10.1505 13.8063C10.2331 13.9085 10.3559 13.9604 10.4806 13.9477L12.195 13.7645L13.0036 14.9306C13.0756 15.0347 13.1882 15.0965 13.3085 15.0982C13.732 15.1039 14.6804 15.1203 15.2851 15.1423C14.1879 18.1709 10.5517 22.2186 9.71781 23.1219ZM17.5911 16.9128L15.3862 16.8193C15.7359 16.1477 16.0032 15.481 16.1893 14.872C16.2949 14.5271 16.0801 14.3428 15.8595 14.3389C15.5192 14.3327 14.0601 14.274 13.5093 14.2659L12.6841 13.0758C12.6033 12.9593 12.4739 12.8964 12.336 12.9103L10.603 13.0953L10.1322 12.5114C10.3272 11.9697 10.5011 11.4334 10.6308 10.9349C10.9625 9.65886 11.2139 8.11684 11.3837 6.8876C11.637 6.98911 11.9652 7.12459 12.2774 7.25633C12.3729 7.2971 12.4812 7.29502 12.5755 7.24895L13.9258 6.60136L15.2342 7.36522C15.3309 7.42191 15.4466 7.43132 15.5497 7.3905L17.3775 6.67808C17.3775 6.67808 18.7457 7.70052 18.9987 7.72859C19.1387 7.74416 20.1597 7.35667 20.6022 7.21304C20.3392 9.02918 19.9315 11.5268 19.5156 12.8184C19.0585 14.2373 17.9527 16.2659 17.5911 16.9128ZM18.7812 16.3728C19.2703 15.4412 19.9105 14.1354 20.2465 13.0926C20.4848 12.3532 20.7161 11.2629 20.9212 10.1267L20.9587 16.4649L18.7812 16.3728ZM21.1719 1.72034L12.686 1.36107L13.5941 0.840166L22.0788 1.19999L21.1719 1.72034ZM21.6498 2.3921L23.1422 1.536L23.1548 3.55761L21.6614 4.41402L21.6498 2.3921ZM21.7316 16.2067L21.6669 5.35701L23.1602 4.50015L23.2243 15.3507L21.7316 16.2067ZM17.4645 13.2335C16.8173 13.0093 15.8686 12.8396 15.0664 12.6952C16.1555 12.2099 17.4541 11.4286 17.6662 10.4027C17.7522 9.98678 17.7001 9.35011 16.9632 8.67719C16.268 8.04254 15.1723 7.92385 14.4149 8.40116C13.8532 8.75548 13.5901 9.37505 13.7113 10.0581C13.7516 10.2853 13.9554 10.4326 14.1641 10.3902C14.3743 10.3465 14.5116 10.1278 14.4717 9.90141C14.4116 9.56217 14.5239 9.29994 14.8058 9.12218C15.2254 8.85743 15.9608 8.85698 16.463 9.31497C16.9968 9.80234 16.9317 10.1173 16.9107 10.2208C16.7206 11.1426 14.6252 12.0777 13.3494 12.4506C13.1715 12.5022 13.0519 12.6825 13.0641 12.8809C13.076 13.0794 13.2164 13.2409 13.3991 13.2674C13.4247 13.271 17.1432 14.0116 17.3583 14.0526C17.6846 14.1145 17.9189 13.3912 17.4645 13.2335ZM7.23354 15.1166C7.02068 15.1357 6.86187 15.3372 6.8794 15.5671C6.89482 15.7688 7.03854 15.9286 7.22055 15.9393C7.39446 15.9493 8.96472 15.8632 9.46482 15.9146C9.38504 16.0007 6.71032 19.0163 6.62262 19.133L5.51665 18.6758C5.31893 18.5938 5.09375 18.7008 5.01683 18.9164C4.94009 19.1317 5.04017 19.373 5.2399 19.4555C5.2399 19.4555 8.07128 20.6374 8.27238 20.7085C8.47347 20.7795 8.71436 20.6672 8.77201 20.4678C8.83581 20.2476 8.74853 20.011 8.54898 19.9287L7.38471 19.4474C8.03252 18.6301 10.199 16.305 10.3042 16.1859C10.5612 15.8932 10.4656 15.6101 10.4303 15.5301C10.3406 15.3299 10.1338 14.8611 7.23354 15.1166Z" fill="#A27E04"/>
</svg>
