<svg width="16" height="16" viewBox="0 0 16 16" fill="none" xmlns="http://www.w3.org/2000/svg">
<g clip-path="url(#clip0_2318_1207)">
<path d="M13.4719 0H2.52809C1.13404 0 0 1.13404 0 2.52809V13.4719C0 14.866 1.13404 16 2.52809 16H13.4719C14.866 16 16 14.866 16 13.4719V2.52809C16 1.13404 14.866 0 13.4719 0ZM14.3146 13.4719C14.3146 13.9365 13.9365 14.3146 13.472 14.3146H2.52809C2.06347 14.3146 1.68547 13.9365 1.68547 13.4719V2.52809C1.68547 2.06347 2.06351 1.68547 2.52809 1.68547H13.4719C13.9365 1.68547 14.3145 2.06351 14.3145 2.52809V13.4719H14.3146Z" fill="#A27E04"/>
<path d="M11.1042 4.73706C10.8324 4.73706 10.5769 4.84297 10.3847 5.03528L6.61937 8.8067L5.61582 7.80324C5.42368 7.61106 5.16822 7.50519 4.89648 7.50519C4.62471 7.50519 4.36924 7.61106 4.17706 7.80319C3.98493 7.99533 3.87915 8.25079 3.87915 8.52253C3.87915 8.79426 3.98493 9.04973 4.17706 9.24182L5.90017 10.9649C6.09231 11.1571 6.34777 11.263 6.61955 11.263C6.89119 11.263 7.14675 11.1571 7.33911 10.9647L11.8236 6.47382C12.2202 6.07711 12.2201 5.43168 11.8236 5.03497C11.6315 4.84288 11.376 4.73706 11.1042 4.73706Z" fill="#A27E04"/>
</g>
<defs>
<clipPath id="clip0_2318_1207">
<rect width="16" height="16" fill="white"/>
</clipPath>
</defs>
</svg>
