<svg width="15" height="20" viewBox="0 0 15 20" fill="none" xmlns="http://www.w3.org/2000/svg">
<path d="M4.08326 3.35132C4.98386 3.31055 5.68106 2.54383 5.64049 1.63879C5.59993 0.733751 4.83695 0.0331217 3.93635 0.0738891C3.03575 0.114657 2.33855 0.881383 2.37912 1.78642C2.41969 2.69146 3.18266 3.39209 4.08326 3.35132Z" fill="#A27E04"/>
<path d="M8.01707 11.5558V5.74111C8.01707 5.73979 8.01707 5.73846 8.01707 5.73714C8.01196 4.70955 7.1628 3.87354 6.12419 3.87354C5.27317 3.87354 2.86541 3.87354 1.89594 3.87354C0.855634 3.87354 0.0051159 4.70955 0 5.73714V5.74111V11.5558C0 11.9929 0.352609 12.3473 0.787616 12.3473C1.22262 12.3473 1.57523 11.9929 1.57523 11.5558V5.74399C1.5767 5.59338 1.72929 5.45648 1.89602 5.45648H1.91513V11.4585H1.91586V19.0501C1.91586 19.5746 2.33901 19.9999 2.86099 19.9999C3.38296 19.9999 3.80611 19.5746 3.80611 19.0501V11.4585H4.21422V19.0501C4.21422 19.5746 4.63737 19.9999 5.15934 19.9999C5.68132 19.9999 6.10447 19.5746 6.10447 19.0501C6.10098 12.9746 6.11121 17.858 6.09668 5.45648H6.12431C6.28934 5.45648 6.44033 5.59323 6.442 5.74372V11.5558C6.442 11.9929 6.79461 12.3473 7.22961 12.3473C7.66447 12.3472 8.01707 11.9929 8.01707 11.5558Z" fill="#A27E04"/>
<path d="M11.7676 12.0304H10.9267V11.6579C10.9267 11.4063 10.723 11.2017 10.4726 11.2017H9.27909C9.02872 11.2017 8.82505 11.4063 8.82505 11.6579V12.0304H8.43609C8.29823 12.5292 7.86256 12.9032 7.3335 12.9469V18.9682C7.3335 19.3293 7.62479 19.6221 7.98411 19.6221H8.06689V19.766C8.06689 19.8953 8.17118 20.0001 8.29986 20.0001H8.88509C9.01376 20.0001 9.11805 19.8953 9.11805 19.766V19.6221H9.66379C9.53136 19.438 9.45299 19.2122 9.45299 18.9682V16.0146C9.45299 15.7826 9.52376 15.5668 9.64464 15.3879V13.0554C9.64464 12.927 9.74816 12.823 9.87586 12.823C10.0036 12.823 10.1071 12.927 10.1071 13.0554V14.9961C10.2471 14.9321 10.4025 14.8962 10.566 14.8962H10.9163V13.0554C10.9163 12.9271 11.0198 12.823 11.1476 12.823C11.2753 12.823 11.3788 12.9271 11.3788 13.0554V14.0673C11.5181 13.9776 11.6836 13.9253 11.861 13.9253H12.4182V12.6842C12.4182 12.3232 12.1269 12.0304 11.7676 12.0304ZM8.06786 19.6221H8.06798C8.06794 19.6226 8.0679 19.6225 8.06786 19.6221ZM8.87392 18.681C8.87392 18.8093 8.7704 18.9134 8.6427 18.9134C8.515 18.9134 8.41148 18.8094 8.41148 18.681V13.0554C8.41148 12.927 8.515 12.823 8.6427 12.823C8.7704 12.823 8.87392 12.927 8.87392 13.0554V18.681ZM9.11689 19.6221H9.11701C9.11697 19.6225 9.11693 19.6226 9.11689 19.6221ZM10.4642 12.0304H9.2875V11.6663H10.4642V12.0304Z" fill="#A27E04"/>
<path d="M14.3492 15.3453H13.5064C13.5101 15.3001 13.5074 15.3496 13.5083 14.8269C13.5083 14.5753 13.3046 14.3706 13.0542 14.3706H11.8607C11.6103 14.3706 11.4066 14.5753 11.4066 14.8269C11.4075 15.3501 11.4048 15.3002 11.4085 15.3453H10.5656C10.2063 15.3453 9.91504 15.6535 9.91504 16.0146V18.9682C9.91504 19.3293 10.2063 19.622 10.5656 19.622H10.6484V19.766C10.6484 19.8953 10.7527 20.0001 10.8814 20.0001H11.4515H11.4666C11.5953 20.0001 11.6996 19.8953 11.6996 19.766V19.622H13.2152V19.766C13.2152 19.8953 13.3195 20.0001 13.4482 20.0001H14.0334C14.1621 20.0001 14.2664 19.8953 14.2664 19.766V19.622H14.3492C14.7085 19.622 14.9998 19.3293 14.9998 18.9682V16.0146C14.9999 15.6535 14.7086 15.3453 14.3492 15.3453ZM11.3393 17.1824H10.8386C10.7336 17.1824 10.6485 17.0969 10.6485 16.9914V16.4891C10.6485 16.3836 10.7336 16.2981 10.8386 16.2981H11.9276C12.0326 16.2981 12.1177 16.3836 12.1177 16.4891V16.7177C11.7824 16.7177 11.49 16.9057 11.3393 17.1824ZM12.1177 18.0353C11.8834 18.0353 11.6934 17.8444 11.6934 17.6089C11.6934 17.3733 11.8834 17.1824 12.1177 17.1824C12.3521 17.1824 12.5421 17.3733 12.5421 17.6089C12.5421 17.8443 12.3521 18.0353 12.1177 18.0353ZM13.0459 15.3453H11.8691V14.8353H13.0459V15.3453ZM13.7409 17.6655C13.4754 17.6655 13.2601 17.4492 13.2601 17.1824C13.2601 16.9156 13.4754 16.6993 13.7409 16.6993C14.0064 16.6993 14.2217 16.9156 14.2217 17.1824C14.2217 17.4492 14.0064 17.6655 13.7409 17.6655Z" fill="#A27E04"/>
</svg>
