<svg width="20" height="20" viewBox="0 0 20 20" fill="none" xmlns="http://www.w3.org/2000/svg">
<path fill-rule="evenodd" clip-rule="evenodd" d="M13.0129 7.1035H6.98758C6.89822 7.10314 6.80968 7.12454 6.72702 7.16647C6.64437 7.2084 6.56922 7.27004 6.50589 7.34786C6.44255 7.42569 6.39226 7.51817 6.35791 7.62001C6.32355 7.72185 6.3058 7.83106 6.30566 7.94139V10.3913L3.59105 14.8387C3.50146 14.9855 3.45314 15.1645 3.45344 15.3483L3.46676 19.1606C3.46733 19.3835 3.53942 19.5969 3.66724 19.7543C3.79506 19.9116 3.96818 20 4.14867 20H15.8516C16.032 19.9999 16.2051 19.9116 16.3329 19.7543C16.4607 19.597 16.5328 19.3836 16.5335 19.1609L16.5465 15.3485C16.5469 15.1647 16.4987 14.9858 16.4092 14.839L13.6943 10.3914V7.94153C13.6942 7.83124 13.6765 7.72206 13.6421 7.62024C13.6078 7.51843 13.5575 7.42596 13.4942 7.34814C13.4309 7.27032 13.3558 7.20868 13.2732 7.16672C13.1906 7.12477 13.1021 7.10333 13.0127 7.10365L13.0129 7.1035ZM10.0002 15.4498C9.89356 15.4499 9.7893 15.411 9.7006 15.3379C9.6119 15.2648 9.54275 15.1609 9.50189 15.0393C9.46103 14.9177 9.4503 14.7839 9.47105 14.6548C9.49181 14.5256 9.54312 14.407 9.61849 14.3139C9.69386 14.2208 9.78992 14.1573 9.8945 14.1316C9.99907 14.1059 10.1075 14.1191 10.206 14.1694C10.3045 14.2198 10.3887 14.3051 10.448 14.4145C10.5072 14.524 10.5389 14.6527 10.5389 14.7843C10.5377 14.9603 10.4806 15.1287 10.3799 15.2532C10.2791 15.3777 10.1427 15.4483 10.0002 15.4498ZM10.0002 12.4352C10.3761 12.4354 10.7435 12.5733 11.056 12.8312C11.3685 13.0892 11.6121 13.4557 11.7559 13.8845C11.8997 14.3133 11.9373 14.7852 11.8639 15.2403C11.7906 15.6955 11.6096 16.1137 11.3439 16.4419C11.0781 16.7701 10.7395 16.9937 10.3708 17.0844C10.0021 17.1751 9.61996 17.1288 9.27259 16.9515C8.92521 16.7741 8.62823 16.4735 8.41917 16.0878C8.21011 15.7021 8.09836 15.2485 8.09805 14.7844C8.09827 14.1616 8.29874 13.5644 8.65539 13.1239C9.01205 12.6835 9.49574 12.4359 10.0002 12.4354V12.4352ZM10.0002 0C10.7735 0.000189209 11.546 0.0573425 12.3138 0.171155C13.8602 0.400182 15.4881 0.871113 16.8976 1.70413C18.0971 2.41305 19.2743 3.47659 19.8214 5.02335C19.8863 5.20657 19.9414 5.39479 19.9865 5.58683L20 5.6447L19.9965 5.7046C19.9733 5.98109 19.9318 6.25479 19.8727 6.523L19.8112 6.83044L19.5589 6.77349C18.3604 6.50291 17.1546 6.28762 15.9417 6.12764L15.7053 6.09649L15.698 5.80313C15.6908 5.51063 15.6838 5.21795 15.6735 4.92541C15.6676 4.76451 15.6244 4.60911 15.5489 4.47773C15.4735 4.34635 15.369 4.24456 15.2479 4.1845C12.5117 2.81425 7.48875 2.81425 4.7525 4.18446C4.63143 4.24447 4.52692 4.34625 4.45146 4.47763C4.376 4.60902 4.33277 4.76445 4.32695 4.92536C4.31664 5.21775 4.3093 5.51044 4.30207 5.80308L4.29484 6.09644L4.05848 6.12759C2.84754 6.28727 1.63977 6.49894 0.442266 6.77325L0.189375 6.83112L0.127695 6.52286C0.0686939 6.25483 0.0271938 5.98139 0.00359375 5.70518L0 5.64514L0.0135938 5.58726C0.0586529 5.39529 0.113769 5.20713 0.178594 5.02398C0.725469 3.47722 1.90281 2.41368 3.10219 1.70475C4.51172 0.871306 6.13949 0.400327 7.68586 0.171445C8.45386 0.0575772 9.22668 0.000391543 10.0002 0.000192799V0ZM19.0552 9.1823C18.9941 9.24885 18.9325 9.31733 18.8679 9.37863L18.7754 9.46654L15.7709 8.89294L15.7623 8.6154C15.7579 8.47033 15.7539 8.32524 15.7503 8.18011L15.7406 7.79198L16.0531 7.83509C17.0544 7.97334 18.0515 8.15212 19.0441 8.37142L19.4046 8.45099L19.2396 8.8546C19.2066 8.93832 19.1685 9.01882 19.1256 9.09539L19.1057 9.12959L19.055 9.1823H19.0552ZM0.944297 9.18162L0.894687 9.12939L0.875625 9.09689C0.831929 9.01969 0.793353 8.93826 0.760273 8.85339L0.597227 8.4507L0.956211 8.37147C1.9477 8.15249 2.94438 7.9737 3.94625 7.83509L4.25742 7.79212L4.24922 8.17856C4.24609 8.32454 4.24258 8.47062 4.2375 8.61655L4.22824 8.89308L1.22551 9.46664L1.13312 9.37945C1.06801 9.31801 1.00578 9.24885 0.944297 9.18182V9.18162Z" fill="#A27E04"/>
</svg>
