<svg width="38" height="56" viewBox="0 0 38 56" fill="none" xmlns="http://www.w3.org/2000/svg">
<path d="M17.6121 55.2694C17.9046 55.7258 18.3971 56 18.9243 56C19.4516 56 19.944 55.7259 20.2365 55.2694C23.9687 49.4455 29.4659 42.2529 33.2966 34.9378C36.3596 29.0888 37.8486 24.1003 37.8486 19.6875C37.8486 8.83181 29.3592 0 18.9243 0C8.48945 0 0 8.83181 0 19.6875C0 24.1003 1.48903 29.0888 4.55203 34.9378C8.3799 42.2473 13.8876 49.4575 17.6121 55.2694ZM18.9243 3.28125C27.62 3.28125 34.6946 10.6411 34.6946 19.6875C34.6946 23.5379 33.3313 28.0129 30.5269 33.368C27.2249 39.6734 22.513 46.0695 18.9243 51.4466C15.3362 46.0703 10.6239 39.6737 7.32171 33.368C4.51734 28.0129 3.15405 23.5379 3.15405 19.6875C3.15405 10.6411 10.2286 3.28125 18.9243 3.28125Z" fill="#BCA48F"/>
<path d="M18.9243 29.5312C24.1418 29.5312 28.3865 25.1153 28.3865 19.6874C28.3865 14.2596 24.1418 9.84369 18.9243 9.84369C13.7069 9.84369 9.46216 14.2596 9.46216 19.6874C9.46216 25.1153 13.7069 29.5312 18.9243 29.5312ZM18.9243 13.1249C22.4026 13.1249 25.2324 16.0689 25.2324 19.6874C25.2324 23.306 22.4026 26.2499 18.9243 26.2499C15.446 26.2499 12.6162 23.306 12.6162 19.6874C12.6162 16.0689 15.446 13.1249 18.9243 13.1249Z" fill="#A5856A"/>
</svg>
