<svg width="36" height="36" viewBox="0 0 36 36" fill="none" xmlns="http://www.w3.org/2000/svg">
<path d="M18 0.083313C8.11666 0.083313 0.0833282 8.11665 0.0833282 18C0.0833282 23.7666 2.83333 28.8916 7.075 32.1666C7.18333 32.2833 7.30833 32.3833 7.45833 32.45C10.4167 34.6166 14.0583 35.9083 18 35.9083C21.9417 35.9083 25.5833 34.6166 28.5417 32.45C28.6833 32.3833 28.8167 32.2833 28.925 32.1666C33.1667 28.8833 35.9167 23.7666 35.9167 18C35.9167 8.11665 27.8833 0.083313 18 0.083313ZM18 33.4166C14.7667 33.4166 11.7667 32.4083 9.28333 30.7C9.60833 27.0916 12.6417 24.25 16.3333 24.25H19.6667C23.3583 24.25 26.4 27.0916 26.7167 30.7C24.2333 32.4083 21.2333 33.4166 18 33.4166ZM11.75 15.5C11.75 12.05 14.55 9.24998 18 9.24998C21.45 9.24998 24.25 12.05 24.25 15.5C24.25 18.95 21.45 21.75 18 21.75C14.55 21.75 11.75 18.95 11.75 15.5ZM28.9167 28.875C28.1417 25.9583 26.0333 23.5916 23.275 22.4666C25.3833 20.8666 26.75 18.3416 26.75 15.5083C26.75 10.6833 22.825 6.75831 18 6.75831C13.175 6.75831 9.24999 10.675 9.24999 15.5C9.24999 18.3416 10.6167 20.8666 12.725 22.4583C9.97499 23.5833 7.85833 25.9583 7.08333 28.8666C4.29999 26.0833 2.58333 22.2416 2.58333 18C2.58333 9.49998 9.49999 2.58331 18 2.58331C26.5 2.58331 33.4167 9.49998 33.4167 18C33.4167 22.2416 31.7 26.0833 28.9167 28.875Z" fill="#BCA48F"/>
</svg>
