<svg width="109" height="39" viewBox="0 0 109 39" fill="none" xmlns="http://www.w3.org/2000/svg">
<path fill-rule="evenodd" clip-rule="evenodd" d="M8.45808 0.512053C6.52312 -0.170684 3.38618 -0.170684 1.45122 0.512053C-0.48374 1.19479 -0.48374 2.30164 1.45122 2.98438L47.4932 19.23L1.45122 35.4756C-0.48374 36.1583 -0.48374 37.2652 1.45122 37.9479C3.38618 38.6306 6.52312 38.6306 8.45808 37.9479L58.0034 20.4661C59.9384 19.7834 59.9384 18.6765 58.0034 17.9939L8.45808 0.512053ZM58.0034 0.512053C56.0687 -0.170684 52.9315 -0.170684 50.9968 0.512053C49.0618 1.19479 49.0618 2.30164 50.9968 2.98438L97.0388 19.23L50.9968 35.4756C49.0618 36.1583 49.0618 37.2652 50.9968 37.9479C52.9315 38.6306 56.0687 38.6306 58.0034 37.9479L107.549 20.4661C109.484 19.7834 109.484 18.6765 107.549 17.9939L58.0034 0.512053Z" fill="#A27E04"/>
</svg>
