<svg width="109" height="111" viewBox="0 0 109 111" fill="none" xmlns="http://www.w3.org/2000/svg">
<path fill-rule="evenodd" clip-rule="evenodd" d="M100.542 109.522C102.477 111.493 105.614 111.493 107.549 109.522C109.484 107.552 109.484 104.357 107.549 102.387L61.5068 55.4999L107.549 8.61311C109.484 6.64264 109.484 3.44815 107.549 1.47768C105.614 -0.492565 102.477 -0.492565 100.542 1.47768L50.9966 51.9323C49.0616 53.9026 49.0616 57.0973 50.9966 59.0675L100.542 109.522ZM50.9966 109.522C52.9313 111.493 56.0685 111.493 58.0032 109.522C59.9382 107.552 59.9382 104.357 58.0032 102.387L11.9612 55.4999L58.0032 8.61311C59.9382 6.64264 59.9382 3.44815 58.0032 1.47768C56.0685 -0.492565 52.9313 -0.492565 50.9966 1.47768L1.45105 51.9323C-0.483695 53.9026 -0.483695 57.0973 1.45105 59.0675L50.9966 109.522Z" fill="white"/>
</svg>
