<svg width="109" height="108" viewBox="0 0 109 108" fill="none" xmlns="http://www.w3.org/2000/svg">
<path fill-rule="evenodd" clip-rule="evenodd" d="M8.45808 1.42745C6.52312 -0.475817 3.38618 -0.475817 1.45122 1.42745C-0.48374 3.33072 -0.48374 6.41628 1.45122 8.31954L47.4932 53.6074L1.45122 98.8953C-0.48374 100.799 -0.48374 103.884 1.45122 105.787C3.38618 107.69 6.52312 107.69 8.45808 105.787L58.0034 57.0534C59.9384 55.1503 59.9384 52.0645 58.0034 50.1615L8.45808 1.42745ZM58.0034 1.42745C56.0687 -0.475817 52.9315 -0.475817 50.9968 1.42745C49.0618 3.33072 49.0618 6.41628 50.9968 8.31954L97.0388 53.6074L50.9968 98.8953C49.0618 100.799 49.0618 103.884 50.9968 105.787C52.9315 107.69 56.0687 107.69 58.0034 105.787L107.549 57.0534C109.484 55.1503 109.484 52.0645 107.549 50.1615L58.0034 1.42745Z" fill="white"/>
</svg>
