<svg width="40" height="40" viewBox="0 0 40 40" fill="none" xmlns="http://www.w3.org/2000/svg">
<g clip-path="url(#clip0_2501_1020)">
<path fill-rule="evenodd" clip-rule="evenodd" d="M26.0257 15.3078H13.9752C13.7964 15.3073 13.6194 15.3419 13.454 15.4098C13.2887 15.4778 13.1384 15.5776 13.0118 15.7037C12.8851 15.8298 12.7845 15.9796 12.7158 16.1446C12.6471 16.3095 12.6116 16.4865 12.6113 16.6652V20.6339L7.18211 27.8386C7.00291 28.0765 6.90627 28.3663 6.90687 28.6641L6.93352 34.8399C6.93465 35.2009 7.07884 35.5468 7.33447 35.8016C7.59011 36.0565 7.93636 36.1997 8.29734 36.1997H31.7031C32.064 36.1996 32.4102 36.0564 32.6658 35.8017C32.9214 35.5469 33.0657 35.2012 33.067 34.8403L33.093 28.6645C33.0938 28.3668 32.9973 28.0769 32.8184 27.839L27.3887 20.6342V16.6654C27.3884 16.4867 27.3529 16.3099 27.2842 16.1449C27.2156 15.98 27.1151 15.8302 26.9884 15.7041C26.8618 15.5781 26.7116 15.4782 26.5464 15.4103C26.3811 15.3423 26.2041 15.3076 26.0255 15.3081L26.0257 15.3078ZM20.0004 28.8286C19.7871 28.8288 19.5786 28.7657 19.4012 28.6473C19.2238 28.5289 19.0855 28.3606 19.0038 28.1636C18.9221 27.9666 18.9006 27.7498 18.9421 27.5406C18.9836 27.3315 19.0862 27.1393 19.237 26.9884C19.3877 26.8376 19.5798 26.7348 19.789 26.6931C19.9981 26.6515 20.215 26.6728 20.412 26.7544C20.6091 26.8359 20.7775 26.9741 20.896 27.1514C21.0145 27.3288 21.0777 27.5372 21.0777 27.7505C21.0755 28.0356 20.9612 28.3084 20.7597 28.51C20.5582 28.7117 20.2855 28.8261 20.0004 28.8286ZM20.0004 23.945C20.7522 23.9454 21.4871 24.1686 22.1121 24.5865C22.737 25.0044 23.2241 25.5982 23.5117 26.2929C23.7993 26.9875 23.8745 27.7518 23.7279 28.4892C23.5812 29.2266 23.2192 29.904 22.6877 30.4357C22.1562 30.9674 21.4789 31.3296 20.7416 31.4766C20.0043 31.6235 19.2399 31.5485 18.5452 31.2612C17.8504 30.9738 17.2565 30.4869 16.8383 29.8621C16.4202 29.2373 16.1967 28.5025 16.1961 27.7507C16.1965 26.7417 16.5975 25.7743 17.3108 25.0608C18.0241 24.3472 18.9915 23.9461 20.0004 23.9453V23.945ZM20.0004 3.80042C21.5469 3.80072 23.0921 3.89331 24.6276 4.07768C27.7205 4.4487 30.9763 5.21159 33.7952 6.56104C36.1942 7.70948 38.5487 9.43237 39.6429 11.9381C39.7726 12.2349 39.8828 12.5398 39.973 12.8509L40 12.9446L39.993 13.0417C39.9465 13.4896 39.8637 13.933 39.7454 14.3674L39.6224 14.8655L39.1177 14.7732C36.7207 14.3349 34.3092 13.9861 31.8834 13.727L31.4105 13.6765L31.3961 13.2013C31.3816 12.7274 31.3676 12.2533 31.347 11.7794C31.3352 11.5188 31.2487 11.267 31.0978 11.0542C30.9469 10.8414 30.7379 10.6765 30.4959 10.5792C25.0234 8.3594 14.9775 8.3594 9.505 10.5791C9.26287 10.6763 9.05385 10.8412 8.90292 11.054C8.75199 11.2669 8.66555 11.5187 8.65391 11.7793C8.63328 12.253 8.61859 12.7271 8.60414 13.2012L8.58969 13.6764L8.11695 13.7269C5.69508 13.9856 3.27953 14.3285 0.884531 14.7728L0.37875 14.8666L0.255391 14.3672C0.137388 13.933 0.0543875 13.4901 0.0071875 13.0426L0 12.9453L0.0271875 12.8516C0.117306 12.5406 0.227538 12.2358 0.357188 11.9391C1.45094 9.43338 3.80562 7.71049 6.20438 6.56206C9.02344 5.2119 12.279 4.44893 15.3717 4.07815C16.9077 3.89369 18.4534 3.80105 20.0004 3.80073V3.80042ZM38.1104 18.6754C37.9883 18.7832 37.8649 18.8942 37.7359 18.9935L37.5508 19.1359L31.5417 18.2067L31.5247 17.7571C31.5158 17.5221 31.5078 17.287 31.5005 17.0519L31.4812 16.4231L32.1062 16.493C34.1089 16.717 36.1029 17.0066 38.0883 17.3618L38.8092 17.4907L38.4791 18.1446C38.4132 18.2802 38.3369 18.4106 38.2512 18.5346L38.2115 18.59L38.1099 18.6754H38.1104ZM1.88859 18.6743L1.78937 18.5897L1.75125 18.5371C1.66386 18.412 1.58671 18.2801 1.52055 18.1426L1.19445 17.4903L1.91242 17.3619C3.89539 17.0072 5.88875 16.7175 7.8925 16.493L8.51484 16.4234L8.49844 17.0494C8.49219 17.2859 8.48516 17.5225 8.475 17.7589L8.45648 18.2069L2.45102 19.136L2.26625 18.9948C2.13602 18.8953 2.01156 18.7832 1.88859 18.6746V18.6743Z" fill="#BCA48F"/>
</g>
<defs>
<clipPath id="clip0_2501_1020">
<rect width="40" height="40" fill="white"/>
</clipPath>
</defs>
</svg>
