<svg width="40" height="34" viewBox="0 0 40 34" fill="none" xmlns="http://www.w3.org/2000/svg">
<path fill-rule="evenodd" clip-rule="evenodd" d="M26.0257 12.3078H13.9752C13.7964 12.3073 13.6194 12.3419 13.454 12.4098C13.2887 12.4778 13.1384 12.5776 13.0118 12.7037C12.8851 12.8298 12.7845 12.9796 12.7158 13.1446C12.6471 13.3095 12.6116 13.4865 12.6113 13.6652V17.6339L7.18211 24.8386C7.00291 25.0765 6.90627 25.3663 6.90687 25.6641L6.93352 31.8399C6.93465 32.2009 7.07884 32.5468 7.33447 32.8016C7.59011 33.0565 7.93636 33.1996 8.29734 33.1997H31.7031C32.064 33.1996 32.4102 33.0564 32.6658 32.8017C32.9214 32.5469 33.0657 32.2012 33.067 31.8403L33.093 25.6645C33.0938 25.3668 32.9973 25.0769 32.8184 24.839L27.3887 17.6342V13.6654C27.3884 13.4867 27.3529 13.3099 27.2842 13.1449C27.2156 12.98 27.1151 12.8302 26.9884 12.7041C26.8618 12.5781 26.7116 12.4782 26.5464 12.4103C26.3811 12.3423 26.2041 12.3076 26.0255 12.3081L26.0257 12.3078ZM20.0004 25.8286C19.7871 25.8288 19.5786 25.7657 19.4012 25.6473C19.2238 25.5289 19.0855 25.3606 19.0038 25.1636C18.9221 24.9666 18.9006 24.7498 18.9421 24.5406C18.9836 24.3315 19.0862 24.1393 19.237 23.9884C19.3877 23.8376 19.5798 23.7348 19.789 23.6931C19.9981 23.6515 20.215 23.6728 20.412 23.7544C20.6091 23.8359 20.7775 23.9741 20.896 24.1514C21.0145 24.3288 21.0777 24.5372 21.0777 24.7505C21.0755 25.0356 20.9612 25.3084 20.7597 25.51C20.5582 25.7117 20.2855 25.8261 20.0004 25.8286ZM20.0004 20.945C20.7522 20.9454 21.4871 21.1686 22.1121 21.5865C22.737 22.0044 23.2241 22.5982 23.5117 23.2929C23.7993 23.9875 23.8745 24.7518 23.7279 25.4892C23.5812 26.2266 23.2192 26.904 22.6877 27.4357C22.1562 27.9674 21.4789 28.3296 20.7416 28.4766C20.0043 28.6235 19.2399 28.5485 18.5452 28.2612C17.8504 27.9738 17.2565 27.4869 16.8383 26.8621C16.4202 26.2373 16.1967 25.5025 16.1961 24.7507C16.1965 23.7417 16.5975 22.7743 17.3108 22.0608C18.0241 21.3472 18.9915 20.9461 20.0004 20.9453V20.945ZM20.0004 0.800415C21.5469 0.800722 23.0921 0.893308 24.6276 1.07768C27.7205 1.4487 30.9763 2.21159 33.7952 3.56104C36.1942 4.70948 38.5487 6.43237 39.6429 8.93807C39.7726 9.23487 39.8828 9.53979 39.973 9.85088L40 9.94463L39.993 10.0417C39.9465 10.4896 39.8637 10.933 39.7454 11.3674L39.6224 11.8655L39.1177 11.7732C36.7207 11.3349 34.3092 10.9861 31.8834 10.727L31.4105 10.6765L31.3961 10.2013C31.3816 9.72745 31.3676 9.25331 31.347 8.7794C31.3352 8.51876 31.2487 8.267 31.0978 8.05418C30.9469 7.84135 30.7379 7.67645 30.4959 7.57916C25.0234 5.3594 14.9775 5.3594 9.505 7.57909C9.26287 7.6763 9.05385 7.84118 8.90292 8.05402C8.75199 8.26686 8.66555 8.51866 8.65391 8.77932C8.63328 9.25299 8.61859 9.72713 8.60414 10.2012L8.58969 10.6764L8.11695 10.7269C5.69508 10.9856 3.27953 11.3285 0.884531 11.7728L0.37875 11.8666L0.255391 11.3672C0.137388 10.933 0.0543875 10.4901 0.0071875 10.0426L0 9.94534L0.0271875 9.85159C0.117306 9.54059 0.227538 9.23578 0.357188 8.93909C1.45094 6.43338 3.80562 4.71049 6.20438 3.56206C9.02344 2.2119 12.279 1.44893 15.3717 1.07815C16.9077 0.893688 18.4534 0.801049 20.0004 0.800727V0.800415ZM38.1104 15.6754C37.9883 15.7832 37.8649 15.8942 37.7359 15.9935L37.5508 16.1359L31.5417 15.2067L31.5247 14.7571C31.5158 14.5221 31.5078 14.287 31.5005 14.0519L31.4812 13.4231L32.1062 13.493C34.1089 13.717 36.1029 14.0066 38.0883 14.3618L38.8092 14.4907L38.4791 15.1446C38.4132 15.2802 38.3369 15.4106 38.2512 15.5346L38.2115 15.59L38.1099 15.6754H38.1104ZM1.88859 15.6743L1.78937 15.5897L1.75125 15.5371C1.66386 15.412 1.58671 15.2801 1.52055 15.1426L1.19445 14.4903L1.91242 14.3619C3.89539 14.0072 5.88875 13.7175 7.8925 13.493L8.51484 13.4234L8.49844 14.0494C8.49219 14.2859 8.48516 14.5225 8.475 14.7589L8.45648 15.2069L2.45102 16.136L2.26625 15.9948C2.13602 15.8953 2.01156 15.7832 1.88859 15.6746V15.6743Z" fill="#A24E04"/>
</svg>
