<svg width="19" height="17" viewBox="0 0 19 17" fill="none" xmlns="http://www.w3.org/2000/svg">
<path d="M0.3 7.61938L4.5 9.21938L6.1 14.5194C6.2 14.8194 6.6 15.0194 6.9 14.7194L9.3 12.8194C9.5 12.6194 9.9 12.6194 10.2 12.8194L14.5 15.9194C14.8 16.1194 15.2 16.0194 15.3 15.6194L18.4 0.619381C18.5 0.219381 18.1 -0.0806185 17.7 0.0193815L0.3 6.71938C-0.1 6.91938 -0.1 7.51938 0.3 7.61938ZM5.9 8.41938L14.2 3.31938C14.4 3.21938 14.5 3.41938 14.4 3.51938L7.6 9.91938C7.4 10.1194 7.2 10.4194 7.2 10.8194L7 12.5194C7 12.7194 6.6 12.8194 6.6 12.5194L5.7 9.31938C5.5 9.01938 5.6 8.61938 5.9 8.41938Z" fill="#BCA48F"/>
</svg>
