<svg width="24" height="24" viewBox="0 0 24 24" fill="none" xmlns="http://www.w3.org/2000/svg">
<path d="M2.3 11.6194L6.5 13.2194L8.1 18.5194C8.2 18.8194 8.6 19.0194 8.9 18.7194L11.3 16.8194C11.5 16.6194 11.9 16.6194 12.2 16.8194L16.5 19.9194C16.8 20.1194 17.2 20.0194 17.3 19.6194L20.4 4.61938C20.5 4.21938 20.1 3.91938 19.7 4.01938L2.3 10.7194C1.9 10.9194 1.9 11.5194 2.3 11.6194ZM7.9 12.4194L16.2 7.31938C16.4 7.21938 16.5 7.41938 16.4 7.51938L9.6 13.9194C9.4 14.1194 9.2 14.4194 9.2 14.8194L9 16.5194C9 16.7194 8.6 16.8194 8.6 16.5194L7.7 13.3194C7.5 13.0194 7.6 12.6194 7.9 12.4194Z" fill="black"/>
</svg>
