<svg width="24" height="14" viewBox="0 0 24 14" fill="none" xmlns="http://www.w3.org/2000/svg">
<path d="M12.7782 0C11.5109 0 10.731 0 9.56113 0C8.58626 0 8.09883 0.4 8.09883 0.6C8.09883 0.8 8.58626 1 8.87872 1.2C9.17118 1.4 9.46364 2 9.46364 2.4V5.8C9.46364 6.1 9.36616 6.3 9.17118 6.6C9.0737 6.7 8.87872 6.7 8.78124 6.7C8.68375 6.7 8.48878 6.7 8.39129 6.5C7.12396 4.8 7.12396 4.6 5.3692 1.2C5.07674 1.1 4.97925 0.9 4.88177 0.8C4.68679 0.6 4.39433 0.6 4.00439 0.6C2.54209 0.6 1.66471 0.6 0.787325 0.6C-0.0900557 0.6 -0.0900557 1.1 0.104918 1.4C1.17727 3.7 2.24963 5.8 3.51695 8C4.97925 10.6 6.24658 12.1 8.48878 13.2C8.97621 13.5 9.95108 13.7 11.0234 13.7H13.2656C13.5581 13.7 14.0455 13.5 14.0455 13.1V11.3C14.0455 10.8 14.533 10.6 14.8254 10.5C15.1179 10.4 15.5078 10.6 15.6053 10.8C16.8726 12.2 16.7752 12.1 17.945 13.3C18.2375 13.6 18.4324 13.7 18.9199 13.7C22.2344 13.7 22.3319 13.7 23.1118 13.7C23.3068 13.7 23.6967 13.4 23.6967 13.2C23.7942 13 23.9892 12.4 23.6967 12C22.5269 10.6 21.357 9.4 20.1872 8.1C20.0897 8 19.9922 7.9 19.9922 7.7C19.9922 7.6 20.0897 7.4 20.1872 7.3C21.4545 5.5 22.5269 3.9 23.6967 2C24.0867 1.4 23.9892 0.9 23.9892 0.8C23.8917 0.6 23.6967 0.4 23.4042 0.4C21.8445 0.4 21.1621 0.4 19.5048 0.4C19.0173 0.4 18.5299 0.4 18.3349 1C17.6525 2.6 16.3852 5.1 15.4103 6.2C15.2154 6.4 14.9229 6.5 14.7279 6.5C14.533 6.5 14.2405 6.3 14.2405 6C14.2405 4.2 14.2405 2.7 14.2405 1C14.2405 0.5 14.0455 0.3 13.8505 0.2C13.4606 0.0999998 13.0707 0 12.7782 0Z" fill="#BCA48F"/>
</svg>
