<svg width="24" height="24" viewBox="0 0 24 24" fill="none" xmlns="http://www.w3.org/2000/svg">
<path d="M12.7782 5C11.5109 5 10.731 5 9.56113 5C8.58626 5 8.09883 5.4 8.09883 5.6C8.09883 5.8 8.58626 6 8.87872 6.2C9.17118 6.4 9.46364 7 9.46364 7.4V10.8C9.46364 11.1 9.36616 11.3 9.17118 11.6C9.0737 11.7 8.87872 11.7 8.78124 11.7C8.68375 11.7 8.48878 11.7 8.39129 11.5C7.12396 9.8 7.12396 9.6 5.3692 6.2C5.07674 6.1 4.97925 5.9 4.88177 5.8C4.68679 5.6 4.39433 5.6 4.00439 5.6C2.54209 5.6 1.66471 5.6 0.787325 5.6C-0.0900557 5.6 -0.0900557 6.1 0.104918 6.4C1.17727 8.7 2.24963 10.8 3.51695 13C4.97925 15.6 6.24658 17.1 8.48878 18.2C8.97621 18.5 9.95108 18.7 11.0234 18.7H13.2656C13.5581 18.7 14.0455 18.5 14.0455 18.1V16.3C14.0455 15.8 14.533 15.6 14.8254 15.5C15.1179 15.4 15.5078 15.6 15.6053 15.8C16.8726 17.2 16.7751 17.1 17.945 18.3C18.2375 18.6 18.4324 18.7 18.9199 18.7C22.2344 18.7 22.3319 18.7 23.1118 18.7C23.3068 18.7 23.6967 18.4 23.6967 18.2C23.7942 18 23.9892 17.4 23.6967 17C22.5269 15.6 21.357 14.4 20.1872 13.1C20.0897 13 19.9922 12.9 19.9922 12.7C19.9922 12.6 20.0897 12.4 20.1872 12.3C21.4545 10.5 22.5269 8.9 23.6967 7C24.0867 6.4 23.9892 5.9 23.9892 5.8C23.8917 5.6 23.6967 5.4 23.4042 5.4C21.8445 5.4 21.1621 5.4 19.5048 5.4C19.0173 5.4 18.5299 5.4 18.3349 6C17.6525 7.6 16.3852 10.1 15.4103 11.2C15.2154 11.4 14.9229 11.5 14.7279 11.5C14.533 11.5 14.2405 11.3 14.2405 11C14.2405 9.2 14.2405 7.7 14.2405 6C14.2405 5.5 14.0455 5.3 13.8505 5.2C13.4606 5.1 13.0707 5 12.7782 5Z" fill="black"/>
</svg>
